<svg xmlns="http://www.w3.org/2000/svg" xmlns:xlink="http://www.w3.org/1999/xlink" width="1366" zoomAndPan="magnify" viewBox="0 0 1024.5 576" height="768" preserveAspectRatio="xMidYMid meet" version="1.0"><path fill="#d5d2d0" d="M 617.207031 27.113281 C 609.199219 22.839844 600.949219 19.105469 592.457031 15.90625 C 583.964844 12.707031 575.296875 10.074219 566.460938 8.007812 C 557.625 5.9375 548.691406 4.453125 539.660156 3.546875 C 530.628906 2.644531 521.578125 2.332031 512.503906 2.609375 C 503.183594 2.324219 493.886719 2.660156 484.609375 3.625 C 475.335938 4.585938 466.164062 6.164062 457.101562 8.359375 C 448.039062 10.554688 439.160156 13.34375 430.472656 16.730469 C 421.78125 20.117188 413.359375 24.066406 405.199219 28.585938 C 401.257812 30.90625 397.394531 33.351562 393.613281 35.921875 C 389.832031 38.496094 386.136719 41.191406 382.535156 44.007812 C 378.929688 46.824219 375.421875 49.753906 372.011719 52.800781 C 368.597656 55.847656 365.289062 59.003906 362.085938 62.269531 C 358.882812 65.535156 355.789062 68.902344 352.808594 72.371094 C 349.828125 75.839844 346.960938 79.402344 344.214844 83.058594 C 341.464844 86.714844 338.84375 90.460938 336.339844 94.289062 C 333.839844 98.121094 331.46875 102.027344 329.222656 106.011719 C 326.980469 110 324.871094 114.054688 322.890625 118.179688 C 320.914062 122.304688 319.078125 126.492188 317.375 130.738281 C 315.675781 134.980469 314.113281 139.28125 312.695312 143.628906 C 311.277344 147.976562 310.003906 152.367188 308.875 156.800781 C 307.746094 161.234375 306.761719 165.699219 305.925781 170.195312 C 305.089844 174.691406 304.40625 179.210938 303.867188 183.753906 C 303.328125 188.296875 302.941406 192.851562 302.703125 197.421875 C 302.464844 201.988281 302.375 206.558594 302.441406 211.132812 C 304.921875 294.320312 357.933594 371.085938 405.089844 437.882812 C 438.421875 485.339844 474.226562 530.847656 512.503906 574.410156 C 579.007812 499.078125 642.816406 416.453125 688.742188 326.863281 C 708.03125 289.226562 722.632812 251.382812 722.632812 209.4375 C 722.640625 204.839844 722.496094 200.246094 722.203125 195.65625 C 721.90625 191.070312 721.464844 186.496094 720.867188 181.933594 C 720.273438 177.375 719.527344 172.839844 718.632812 168.328125 C 717.742188 163.820312 716.699219 159.34375 715.511719 154.898438 C 714.324219 150.457031 712.992188 146.058594 711.515625 141.703125 C 710.039062 137.351562 708.417969 133.046875 706.660156 128.800781 C 704.898438 124.550781 703 120.367188 700.964844 116.242188 C 698.929688 112.121094 696.761719 108.066406 694.460938 104.085938 C 692.15625 100.105469 689.726562 96.207031 687.167969 92.382812 C 684.609375 88.5625 681.929688 84.832031 679.125 81.1875 C 676.324219 77.542969 673.402344 73.992188 670.363281 70.539062 C 667.328125 67.085938 664.179688 63.738281 660.921875 60.492188 C 657.664062 57.246094 654.304688 54.113281 650.839844 51.085938 C 647.378906 48.0625 643.816406 45.15625 640.164062 42.363281 C 636.507812 39.574219 632.765625 36.90625 628.9375 34.363281 C 625.105469 31.816406 621.195312 29.402344 617.207031 27.113281 Z M 512.503906 385.511719 C 509.707031 385.511719 506.910156 385.445312 504.113281 385.308594 C 501.316406 385.167969 498.527344 384.964844 495.742188 384.6875 C 492.957031 384.414062 490.179688 384.074219 487.410156 383.660156 C 484.640625 383.25 481.882812 382.773438 479.140625 382.226562 C 476.394531 381.679688 473.664062 381.066406 470.949219 380.386719 C 468.234375 379.707031 465.535156 378.960938 462.859375 378.148438 C 460.179688 377.335938 457.523438 376.457031 454.886719 375.515625 C 452.253906 374.570312 449.640625 373.566406 447.054688 372.492188 C 444.46875 371.421875 441.910156 370.289062 439.382812 369.09375 C 436.851562 367.894531 434.351562 366.636719 431.882812 365.316406 C 429.414062 364 426.980469 362.617188 424.578125 361.179688 C 422.179688 359.742188 419.8125 358.242188 417.488281 356.6875 C 415.160156 355.132812 412.871094 353.523438 410.625 351.855469 C 408.375 350.1875 406.167969 348.464844 404.003906 346.691406 C 401.839844 344.914062 399.722656 343.085938 397.648438 341.207031 C 395.574219 339.328125 393.546875 337.398438 391.570312 335.417969 C 389.589844 333.441406 387.660156 331.414062 385.78125 329.339844 C 383.902344 327.265625 382.074219 325.148438 380.296875 322.984375 C 378.523438 320.820312 376.800781 318.613281 375.132812 316.363281 C 373.464844 314.117188 371.855469 311.828125 370.300781 309.5 C 368.746094 307.175781 367.246094 304.808594 365.808594 302.410156 C 364.371094 300.007812 362.988281 297.574219 361.671875 295.105469 C 360.351562 292.636719 359.09375 290.136719 357.894531 287.605469 C 356.699219 285.078125 355.566406 282.519531 354.496094 279.933594 C 353.421875 277.347656 352.417969 274.734375 351.472656 272.101562 C 350.53125 269.464844 349.652344 266.808594 348.839844 264.128906 C 348.027344 261.453125 347.28125 258.753906 346.601562 256.039062 C 345.921875 253.324219 345.308594 250.59375 344.761719 247.847656 C 344.214844 245.105469 343.738281 242.347656 343.328125 239.578125 C 342.914062 236.808594 342.574219 234.03125 342.300781 231.246094 C 342.023438 228.460938 341.820312 225.671875 341.679688 222.875 C 341.542969 220.078125 341.476562 217.28125 341.476562 214.484375 C 341.476562 211.683594 341.542969 208.886719 341.679688 206.089844 C 341.820312 203.292969 342.023438 200.503906 342.300781 197.71875 C 342.574219 194.933594 342.914062 192.15625 343.328125 189.386719 C 343.738281 186.617188 344.214844 183.863281 344.761719 181.117188 C 345.308594 178.371094 345.921875 175.640625 346.601562 172.925781 C 347.28125 170.210938 348.027344 167.511719 348.839844 164.835938 C 349.652344 162.15625 350.53125 159.5 351.472656 156.863281 C 352.417969 154.230469 353.421875 151.617188 354.496094 149.03125 C 355.566406 146.445312 356.699219 143.886719 357.894531 141.359375 C 359.09375 138.828125 360.351562 136.328125 361.671875 133.859375 C 362.988281 131.390625 364.371094 128.957031 365.808594 126.554688 C 367.246094 124.15625 368.746094 121.789062 370.300781 119.464844 C 371.855469 117.136719 373.464844 114.847656 375.132812 112.601562 C 376.800781 110.351562 378.523438 108.144531 380.296875 105.980469 C 382.074219 103.820312 383.902344 101.699219 385.78125 99.625 C 387.660156 97.550781 389.589844 95.523438 391.570312 93.546875 C 393.546875 91.566406 395.574219 89.636719 397.648438 87.757812 C 399.722656 85.878906 401.839844 84.050781 404.003906 82.273438 C 406.167969 80.5 408.375 78.777344 410.625 77.109375 C 412.871094 75.441406 415.160156 73.832031 417.488281 72.277344 C 419.8125 70.722656 422.179688 69.222656 424.578125 67.785156 C 426.980469 66.347656 429.414062 64.96875 431.882812 63.648438 C 434.351562 62.328125 436.851562 61.070312 439.378906 59.875 C 441.910156 58.675781 444.46875 57.542969 447.054688 56.472656 C 449.640625 55.398438 452.25 54.394531 454.886719 53.449219 C 457.523438 52.507812 460.179688 51.628906 462.859375 50.816406 C 465.535156 50.003906 468.234375 49.257812 470.949219 48.578125 C 473.664062 47.898438 476.394531 47.285156 479.140625 46.738281 C 481.882812 46.191406 484.640625 45.714844 487.410156 45.304688 C 490.179688 44.894531 492.957031 44.550781 495.742188 44.277344 C 498.527344 44 501.316406 43.796875 504.113281 43.660156 C 506.910156 43.519531 509.707031 43.453125 512.503906 43.453125 C 515.304688 43.453125 518.101562 43.519531 520.898438 43.660156 C 523.695312 43.796875 526.484375 44 529.269531 44.277344 C 532.054688 44.550781 534.832031 44.894531 537.601562 45.304688 C 540.371094 45.714844 543.125 46.191406 545.871094 46.738281 C 548.617188 47.285156 551.347656 47.898438 554.0625 48.578125 C 556.777344 49.257812 559.476562 50.003906 562.152344 50.816406 C 564.832031 51.628906 567.488281 52.507812 570.125 53.449219 C 572.757812 54.394531 575.371094 55.398438 577.957031 56.472656 C 580.542969 57.542969 583.101562 58.675781 585.628906 59.871094 C 588.160156 61.070312 590.660156 62.328125 593.128906 63.648438 C 595.597656 64.96875 598.03125 66.347656 600.433594 67.785156 C 602.832031 69.222656 605.199219 70.722656 607.523438 72.277344 C 609.851562 73.832031 612.140625 75.441406 614.386719 77.109375 C 616.636719 78.777344 618.84375 80.5 621.007812 82.273438 C 623.167969 84.050781 625.289062 85.878906 627.363281 87.757812 C 629.4375 89.636719 631.464844 91.566406 633.441406 93.546875 C 635.421875 95.523438 637.351562 97.550781 639.230469 99.625 C 641.109375 101.699219 642.9375 103.820312 644.714844 105.980469 C 646.488281 108.144531 648.210938 110.351562 649.878906 112.601562 C 651.546875 114.847656 653.15625 117.136719 654.710938 119.464844 C 656.265625 121.789062 657.765625 124.15625 659.203125 126.554688 C 660.640625 128.957031 662.019531 131.390625 663.339844 133.859375 C 664.660156 136.328125 665.917969 138.828125 667.113281 141.359375 C 668.3125 143.886719 669.445312 146.445312 670.515625 149.03125 C 671.589844 151.617188 672.59375 154.230469 673.539062 156.863281 C 674.480469 159.5 675.359375 162.15625 676.171875 164.835938 C 676.984375 167.511719 677.730469 170.210938 678.410156 172.925781 C 679.089844 175.640625 679.703125 178.371094 680.25 181.117188 C 680.796875 183.863281 681.273438 186.617188 681.683594 189.386719 C 682.09375 192.15625 682.4375 194.933594 682.710938 197.71875 C 682.988281 200.503906 683.191406 203.292969 683.328125 206.089844 C 683.46875 208.886719 683.535156 211.683594 683.535156 214.484375 C 683.535156 217.28125 683.46875 220.078125 683.328125 222.875 C 683.191406 225.671875 682.988281 228.460938 682.710938 231.246094 C 682.4375 234.03125 682.09375 236.808594 681.683594 239.578125 C 681.273438 242.347656 680.796875 245.105469 680.25 247.847656 C 679.703125 250.59375 679.089844 253.324219 678.410156 256.039062 C 677.730469 258.753906 676.984375 261.453125 676.171875 264.128906 C 675.359375 266.808594 674.480469 269.464844 673.539062 272.101562 C 672.59375 274.734375 671.589844 277.347656 670.515625 279.933594 C 669.445312 282.519531 668.3125 285.078125 667.113281 287.605469 C 665.917969 290.136719 664.660156 292.636719 663.339844 295.105469 C 662.019531 297.574219 660.640625 300.007812 659.203125 302.410156 C 657.765625 304.808594 656.265625 307.175781 654.710938 309.5 C 653.15625 311.828125 651.546875 314.117188 649.878906 316.363281 C 648.210938 318.613281 646.488281 320.820312 644.714844 322.984375 C 642.9375 325.148438 641.109375 327.265625 639.230469 329.339844 C 637.351562 331.414062 635.421875 333.441406 633.441406 335.417969 C 631.464844 337.398438 629.4375 339.328125 627.363281 341.207031 C 625.289062 343.085938 623.167969 344.914062 621.007812 346.691406 C 618.84375 348.464844 616.636719 350.1875 614.386719 351.855469 C 612.140625 353.523438 609.851562 355.132812 607.523438 356.6875 C 605.199219 358.242188 602.832031 359.742188 600.433594 361.179688 C 598.03125 362.617188 595.597656 364 593.128906 365.316406 C 590.660156 366.636719 588.160156 367.894531 585.628906 369.09375 C 583.101562 370.289062 580.542969 371.421875 577.957031 372.492188 C 575.371094 373.566406 572.757812 374.570312 570.125 375.515625 C 567.488281 376.457031 564.832031 377.335938 562.152344 378.148438 C 559.472656 378.960938 556.777344 379.707031 554.0625 380.386719 C 551.347656 381.066406 548.617188 381.679688 545.871094 382.226562 C 543.125 382.773438 540.371094 383.25 537.601562 383.660156 C 534.832031 384.074219 532.054688 384.414062 529.269531 384.6875 C 526.484375 384.964844 523.695312 385.167969 520.898438 385.308594 C 518.101562 385.445312 515.304688 385.511719 512.503906 385.511719 Z M 512.503906 385.511719 " fill-opacity="1" fill-rule="nonzero"/><path fill="#d5d2d0" d="M 481.875 237.457031 L 481.875 187.425781 C 481.875 187.425781 587.042969 175.722656 614.214844 231.566406 C 614.355469 231.894531 614.453125 232.234375 614.507812 232.589844 C 614.5625 232.945312 614.574219 233.300781 614.539062 233.65625 C 614.5 234.011719 614.421875 234.359375 614.296875 234.695312 C 614.171875 235.03125 614.007812 235.347656 613.804688 235.644531 C 613.601562 235.9375 613.363281 236.203125 613.09375 236.4375 C 612.820312 236.667969 612.523438 236.867188 612.203125 237.023438 C 611.882812 237.183594 611.546875 237.300781 611.195312 237.371094 C 610.84375 237.445312 610.488281 237.472656 610.128906 237.457031 Z M 481.875 237.457031 " fill-opacity="1" fill-rule="nonzero"/><path fill="#d5d2d0" d="M 471.664062 207.078125 C 471.664062 207.75 471.628906 208.414062 471.5625 209.082031 C 471.5 209.746094 471.402344 210.40625 471.269531 211.0625 C 471.140625 211.71875 470.976562 212.367188 470.785156 213.007812 C 470.589844 213.648438 470.363281 214.277344 470.109375 214.894531 C 469.851562 215.511719 469.566406 216.117188 469.25 216.707031 C 468.9375 217.296875 468.59375 217.871094 468.222656 218.425781 C 467.847656 218.980469 467.453125 219.519531 467.027344 220.035156 C 466.601562 220.550781 466.152344 221.046875 465.679688 221.519531 C 465.207031 221.992188 464.714844 222.441406 464.195312 222.867188 C 463.679688 223.289062 463.144531 223.6875 462.585938 224.058594 C 462.03125 224.429688 461.457031 224.773438 460.867188 225.089844 C 460.277344 225.40625 459.675781 225.691406 459.054688 225.945312 C 458.4375 226.203125 457.808594 226.429688 457.167969 226.621094 C 456.527344 226.816406 455.882812 226.976562 455.226562 227.109375 C 454.570312 227.238281 453.910156 227.335938 453.242188 227.402344 C 452.578125 227.46875 451.910156 227.5 451.242188 227.5 C 450.574219 227.5 449.90625 227.46875 449.238281 227.402344 C 448.574219 227.335938 447.914062 227.238281 447.257812 227.109375 C 446.601562 226.976562 445.953125 226.816406 445.3125 226.621094 C 444.671875 226.429688 444.042969 226.203125 443.425781 225.945312 C 442.808594 225.691406 442.203125 225.40625 441.613281 225.089844 C 441.023438 224.773438 440.453125 224.429688 439.894531 224.058594 C 439.339844 223.6875 438.804688 223.289062 438.285156 222.867188 C 437.769531 222.441406 437.273438 221.992188 436.800781 221.519531 C 436.328125 221.046875 435.878906 220.550781 435.457031 220.035156 C 435.03125 219.519531 434.632812 218.980469 434.261719 218.425781 C 433.890625 217.871094 433.546875 217.296875 433.230469 216.707031 C 432.914062 216.117188 432.628906 215.511719 432.375 214.894531 C 432.117188 214.277344 431.894531 213.648438 431.699219 213.007812 C 431.503906 212.367188 431.34375 211.71875 431.210938 211.0625 C 431.082031 210.40625 430.984375 209.746094 430.917969 209.082031 C 430.851562 208.414062 430.820312 207.75 430.820312 207.078125 C 430.820312 206.410156 430.851562 205.742188 430.917969 205.078125 C 430.984375 204.414062 431.082031 203.75 431.210938 203.09375 C 431.34375 202.441406 431.503906 201.792969 431.699219 201.152344 C 431.894531 200.511719 432.117188 199.882812 432.375 199.265625 C 432.628906 198.648438 432.914062 198.042969 433.230469 197.453125 C 433.546875 196.863281 433.890625 196.289062 434.261719 195.734375 C 434.632812 195.179688 435.03125 194.640625 435.457031 194.125 C 435.878906 193.609375 436.328125 193.113281 436.800781 192.640625 C 437.273438 192.167969 437.769531 191.71875 438.285156 191.292969 C 438.804688 190.871094 439.339844 190.472656 439.894531 190.101562 C 440.453125 189.726562 441.023438 189.386719 441.613281 189.070312 C 442.203125 188.753906 442.808594 188.46875 443.425781 188.210938 C 444.042969 187.957031 444.671875 187.730469 445.3125 187.539062 C 445.953125 187.34375 446.601562 187.179688 447.257812 187.050781 C 447.914062 186.921875 448.574219 186.820312 449.238281 186.757812 C 449.90625 186.691406 450.574219 186.660156 451.242188 186.660156 C 451.910156 186.660156 452.578125 186.691406 453.242188 186.757812 C 453.910156 186.820312 454.570312 186.921875 455.226562 187.050781 C 455.882812 187.179688 456.527344 187.34375 457.167969 187.539062 C 457.808594 187.730469 458.4375 187.957031 459.054688 188.210938 C 459.675781 188.46875 460.277344 188.753906 460.867188 189.070312 C 461.457031 189.386719 462.03125 189.726562 462.585938 190.101562 C 463.144531 190.472656 463.679688 190.871094 464.195312 191.292969 C 464.714844 191.71875 465.207031 192.167969 465.679688 192.640625 C 466.152344 193.113281 466.601562 193.609375 467.027344 194.125 C 467.453125 194.640625 467.847656 195.179688 468.222656 195.734375 C 468.59375 196.289062 468.9375 196.863281 469.25 197.453125 C 469.566406 198.042969 469.851562 198.648438 470.109375 199.265625 C 470.363281 199.882812 470.589844 200.511719 470.785156 201.152344 C 470.976562 201.792969 471.140625 202.441406 471.269531 203.09375 C 471.402344 203.75 471.5 204.414062 471.5625 205.078125 C 471.628906 205.742188 471.664062 206.410156 471.664062 207.078125 Z M 471.664062 207.078125 " fill-opacity="1" fill-rule="nonzero"/><path fill="#d5d2d0" d="M 405.292969 135.347656 C 406.296875 135.347656 407.292969 135.449219 408.28125 135.644531 C 409.265625 135.839844 410.226562 136.128906 411.152344 136.515625 C 412.082031 136.898438 412.964844 137.371094 413.800781 137.929688 C 414.636719 138.488281 415.410156 139.125 416.121094 139.835938 C 416.835938 140.546875 417.46875 141.320312 418.027344 142.15625 C 418.585938 142.992188 419.058594 143.875 419.441406 144.804688 C 419.828125 145.734375 420.117188 146.691406 420.316406 147.675781 C 420.511719 148.664062 420.609375 149.660156 420.609375 150.664062 L 420.609375 288.011719 L 389.976562 288.011719 L 389.976562 150.664062 C 389.976562 149.660156 390.074219 148.664062 390.269531 147.675781 C 390.46875 146.691406 390.757812 145.734375 391.140625 144.804688 C 391.527344 143.875 392 142.992188 392.558594 142.15625 C 393.117188 141.320312 393.75 140.546875 394.460938 139.835938 C 395.171875 139.125 395.949219 138.488281 396.785156 137.929688 C 397.621094 137.371094 398.503906 136.898438 399.429688 136.515625 C 400.359375 136.128906 401.320312 135.839844 402.304688 135.644531 C 403.292969 135.449219 404.285156 135.347656 405.292969 135.347656 Z M 405.292969 135.347656 " fill-opacity="1" fill-rule="nonzero"/><path fill="#d5d2d0" d="M 619.71875 196.613281 C 620.722656 196.613281 621.71875 196.710938 622.707031 196.90625 C 623.691406 197.105469 624.652344 197.394531 625.578125 197.78125 C 626.507812 198.164062 627.390625 198.636719 628.226562 199.195312 C 629.0625 199.753906 629.835938 200.386719 630.546875 201.101562 C 631.261719 201.8125 631.894531 202.585938 632.453125 203.421875 C 633.011719 204.257812 633.484375 205.140625 633.867188 206.070312 C 634.253906 206.996094 634.542969 207.957031 634.742188 208.941406 C 634.9375 209.929688 635.035156 210.925781 635.035156 211.929688 L 635.035156 288.511719 L 604.402344 288.511719 L 604.402344 211.929688 C 604.402344 210.925781 604.5 209.929688 604.695312 208.941406 C 604.894531 207.957031 605.183594 206.996094 605.570312 206.070312 C 605.953125 205.140625 606.425781 204.257812 606.984375 203.421875 C 607.542969 202.585938 608.175781 201.8125 608.886719 201.101562 C 609.601562 200.386719 610.375 199.753906 611.210938 199.195312 C 612.046875 198.636719 612.929688 198.164062 613.859375 197.78125 C 614.785156 197.394531 615.746094 197.105469 616.730469 196.90625 C 617.71875 196.710938 618.714844 196.613281 619.71875 196.613281 Z M 619.71875 196.613281 " fill-opacity="1" fill-rule="nonzero"/><path fill="#d5d2d0" d="M 420.609375 267.925781 L 420.609375 237.457031 L 604.402344 237.457031 L 604.402344 267.925781 Z M 420.609375 267.925781 " fill-opacity="1" fill-rule="nonzero"/></svg>